<?xml version="1.0" encoding="UTF-8"?>
<svg width="79.44mm" height="79.44mm" version="1.1" viewBox="0 0 79.44 79.44" xmlns="http://www.w3.org/2000/svg">
    <g transform="translate(.43145 -42.662)">
        <path d="m39.288 42.662c-21.907 0-39.72 17.812-39.72 39.72 0 21.907 17.812 39.721 39.72 39.721 21.907 0 39.721-17.813 39.721-39.721 0-21.907-17.813-39.72-39.721-39.72zm-4.4941 5.1996-30.027 30.026c2.0107-15.654 14.372-28.015 30.027-30.026zm8.9901 0c15.655 2.0113 28.018 14.373 30.029 30.028zm-2.1049 4.8272 27.191 27.191-19.952 0.1675c-0.8577-3.5055-3.5955-6.2998-7.07-7.2375zm-4.9 0.11966 0.16937 19.945c-3.505 0.85958-6.297 3.6004-7.2318 7.0767l-20.127 0.16846zm2.5089 24.563c2.796 0 5.011 2.2141 5.011 5.0101s-2.215 5.011-5.011 5.011c-2.796 0-5.011-2.215-5.011-5.011s2.215-5.0101 5.011-5.0101zm-9.6219 7.3619c0.86079 3.4939 3.5898 6.2774 7.0537 7.2155l0.17124 20.117-27.165-27.166zm39.304 0.048826-27.18 27.18-0.1675-19.954c3.5029-0.85618 6.2955-3.5885 7.2356-7.0585zm4.8435 2.0886c-2.009 15.657-14.375 28.021-30.032 30.032zm-69.047 0.002804 30.029 30.029c-15.656-2.01-28.019-14.373-30.029-30.029z"
              color="#000000" color-rendering="auto" fill="#ccc" image-rendering="auto" shape-rendering="auto"
              style="font-feature-settings:normal;font-variant-alternates:normal;font-variant-caps:normal;font-variant-ligatures:normal;font-variant-numeric:normal;font-variant-position:normal;isolation:auto;mix-blend-mode:normal;shape-padding:0;text-decoration-color:#000000;text-decoration-line:none;text-decoration-style:solid;text-indent:0;text-orientation:mixed;text-transform:none;white-space:normal"/>
    </g>
</svg>
